<mxfile host="app.diagrams.net" modified="2023-10-13T07:19:18.948Z" agent="Mozilla/5.0 (Windows NT 10.0; Win64; x64) AppleWebKit/537.36 (KHTML, like Gecko) Chrome/118.0.0.0 Safari/537.36" version="21.3.7" etag="CAkO0UPBLzzhQkn5sUiH" type="github">
  <diagram name="PÃ¡gina-1" id="8oRsb-CNy1-qUanUBa-0">
    <mxGraphModel>
      <root>
        <mxCell id="0" />
        <mxCell id="1" parent="0" />
      </root>
    </mxGraphModel>
  </diagram>
</mxfile>
